# xmcd
#
# Track frame offsets: 
#        150
#        11591
#        32155
#        44451
#        73336
#        94941
#        111431
#        129275
#        147526
#        162444
#        177192
#
# Disc length: 2699 seconds
#
# Revision: 0
# Processed by: cddbd v1.5.2PL0 Copyright (c) Steve Scherf et al.
# Submitted via: ExactAudioCopy v1.0b1
#
DISCID=a00a890b
DTITLE=Derek and the Dominos  - The Slowhand Masterfile Part 2 - Secon
DTITLE=d Album Sessions
DYEAR=1900
DGENRE=
TTITLE0=Chocolate
TTITLE1=It's Hard (To Find Friends)
TTITLE2=Till I See You Again
TTITLE3=Instrumental
TTITLE4=Evil
TTITLE5=Snake Lake Blues
TTITLE6=I've Been
TTITLE7=Mean Old Frisco
TTITLE8=One More Chance
TTITLE9=High
TTITLE10=It's Got to Get Better
EXTD=
EXTT0=
EXTT1=
EXTT2=
EXTT3=
EXTT4=
EXTT5=
EXTT6=
EXTT7=
EXTT8=
EXTT9=
EXTT10=
PLAYORDER=
